<svg width="164" height="34" viewBox="0 0 164 34" fill="none" xmlns="http://www.w3.org/2000/svg">
<path d="M15.9526 12.8526L46.6904 14.6042L41.0486 9.34959C74.1988 -4.03988 101.681 9.60907 111.279 18.1072C139.916 16.8617 152.781 19.9236 155.635 21.6103H164C152.172 15.5383 128.593 14.4096 118.282 14.6042C110.436 9.86856 89.9957 0.319482 71.0083 0.0080993C52.0209 -0.303284 26.393 8.44139 15.9526 12.8526Z" fill="#BC2227"/>
<path d="M0.00365709 24.5915C-0.00781764 24.4939 0.00753478 24.3928 0.0522001 24.2888C0.321157 23.2715 1.64151 21.0242 2.33818 19.9208C1.88424 19.8559 0.976374 19.4148 0.976374 18.1692C0.976374 16.9237 1.88424 16.0933 2.33818 15.8339C18.6798 14.5883 53.6328 18.0395 69.0665 19.9207C15.6653 18.4327 1.01721 22.0409 0.0522001 24.2888C0.0207324 24.4078 0.00365709 24.51 0.00365709 24.5915Z" fill="#163960"/>
<path d="M13.702 27.8608H12.0484C12.0013 27.5895 11.9143 27.3492 11.7876 27.1398C11.6608 26.9275 11.5031 26.7477 11.3145 26.6002C11.1258 26.4528 10.9106 26.3422 10.6689 26.2685C10.4302 26.1918 10.1723 26.1535 9.89518 26.1535C9.40293 26.1535 8.96668 26.2774 8.58643 26.525C8.20619 26.7698 7.90848 27.1295 7.6933 27.6043C7.47813 28.0761 7.37054 28.6525 7.37054 29.3337C7.37054 30.0266 7.47813 30.6105 7.6933 31.0852C7.91143 31.557 8.20914 31.9138 8.58643 32.1556C8.96668 32.3944 9.40145 32.5139 9.89076 32.5139C10.1619 32.5139 10.4154 32.4785 10.6512 32.4077C10.89 32.334 11.1037 32.2264 11.2924 32.0848C11.484 31.9433 11.6446 31.7693 11.7743 31.5629C11.9069 31.3565 11.9983 31.1206 12.0484 30.8552L13.702 30.8641C13.6401 31.2946 13.506 31.6985 13.2997 32.076C13.0963 32.4534 12.8295 32.7866 12.4994 33.0756C12.1693 33.3616 11.7831 33.5857 11.341 33.7479C10.8988 33.9071 10.4081 33.9867 9.86865 33.9867C9.07279 33.9867 8.36241 33.8024 7.73752 33.4338C7.11262 33.0653 6.62037 32.533 6.26076 31.8371C5.90115 31.1412 5.72134 30.3068 5.72134 29.3337C5.72134 28.3577 5.90262 27.5232 6.26518 26.8302C6.62774 26.1343 7.12146 25.6021 7.74636 25.2335C8.37126 24.8649 9.07869 24.6806 9.86865 24.6806C10.3727 24.6806 10.8414 24.7514 11.2747 24.8929C11.708 25.0345 12.0941 25.2424 12.4331 25.5166C12.7721 25.7879 13.0506 26.1211 13.2687 26.5162C13.4898 26.9084 13.6342 27.3566 13.702 27.8608Z" fill="#BC2227"/>
<path d="M18.8723 33.8629H17.1214L20.3093 24.8045H22.3343L25.5266 33.8629H23.7757L21.3571 26.6622H21.2864L18.8723 33.8629ZM18.9298 30.3112H23.7049V31.6292H18.9298V30.3112Z" fill="#BC2227"/>
<path d="M29.3339 33.8629V24.8045H32.7296C33.4252 24.8045 34.0088 24.9254 34.4805 25.1672C34.955 25.409 35.3132 25.7481 35.5549 26.1845C35.7995 26.6179 35.9218 27.1236 35.9218 27.7016C35.9218 28.2825 35.798 28.7867 35.5504 29.2143C35.3058 29.6389 34.9447 29.9677 34.4672 30.2006C33.9897 30.4306 33.4031 30.5456 32.7075 30.5456H30.2889V29.1833H32.4864C32.8932 29.1833 33.2262 29.1273 33.4856 29.0152C33.745 28.9002 33.9366 28.7336 34.0604 28.5154C34.1872 28.2943 34.2505 28.023 34.2505 27.7016C34.2505 27.3802 34.1872 27.1059 34.0604 26.8789C33.9337 26.6489 33.7406 26.4749 33.4812 26.357C33.2218 26.2361 32.8873 26.1756 32.4775 26.1756H30.9743V33.8629H29.3339ZM34.0118 29.7583L36.2535 33.8629H34.423L32.2211 29.7583H34.0118Z" fill="#BC2227"/>
<path d="M44.9675 27.2947C44.9262 26.9084 44.7523 26.6076 44.4458 26.3924C44.1422 26.1771 43.7472 26.0695 43.2608 26.0695C42.9189 26.0695 42.6256 26.1211 42.3809 26.2243C42.1363 26.3275 41.9491 26.4675 41.8194 26.6445C41.6897 26.8214 41.6234 27.0234 41.6205 27.2504C41.6205 27.4391 41.6632 27.6028 41.7487 27.7414C41.8371 27.88 41.9565 27.9979 42.1068 28.0952C42.2571 28.1896 42.4237 28.2692 42.6064 28.3341C42.7892 28.3989 42.9734 28.4535 43.1591 28.4977L44.008 28.71C44.35 28.7896 44.6786 28.8973 44.994 29.0329C45.3124 29.1686 45.5968 29.3396 45.8474 29.546C46.1008 29.7524 46.3013 30.0016 46.4487 30.2935C46.5961 30.5854 46.6697 30.9275 46.6697 31.3196C46.6697 31.8504 46.5342 32.3178 46.263 32.7217C45.9918 33.1228 45.5998 33.4368 45.0869 33.6638C44.5769 33.888 43.9594 34 43.2343 34C42.5298 34 41.9182 33.8909 41.3994 33.6727C40.8836 33.4545 40.4797 33.136 40.1879 32.7173C39.899 32.2986 39.7428 31.7885 39.7192 31.1869H41.3331C41.3566 31.5025 41.4539 31.7649 41.6249 31.9742C41.7958 32.1836 42.0184 32.3399 42.2925 32.4431C42.5696 32.5463 42.8791 32.5979 43.221 32.5979C43.5777 32.5979 43.8901 32.5448 44.1584 32.4387C44.4296 32.3296 44.6418 32.1792 44.7951 31.9875C44.9483 31.7929 45.0264 31.5658 45.0294 31.3064C45.0264 31.0705 44.9572 30.8759 44.8216 30.7225C44.686 30.5662 44.4959 30.4365 44.2512 30.3333C44.0095 30.2271 43.7265 30.1328 43.4023 30.0502L42.3721 29.7848C41.6264 29.5932 41.0368 29.3027 40.6035 28.9135C40.1732 28.5213 39.958 28.0009 39.958 27.3522C39.958 26.8184 40.1024 26.3511 40.3913 25.95C40.6831 25.549 41.0796 25.2379 41.5807 25.0168C42.0818 24.7927 42.6492 24.6806 43.2829 24.6806C43.9255 24.6806 44.4885 24.7927 44.9719 25.0168C45.4583 25.2379 45.84 25.5461 46.1171 25.9412C46.3941 26.3334 46.5371 26.7845 46.5459 27.2947H44.9675Z" fill="#BC2227"/>
<path d="M59.5183 33.8629H56.4498V24.8045H59.5802C60.4792 24.8045 61.2515 24.9858 61.897 25.3485C62.5455 25.7083 63.0437 26.2257 63.3915 26.901C63.7393 27.5763 63.9132 28.3842 63.9132 29.3248C63.9132 30.2684 63.7378 31.0793 63.3871 31.7575C63.0393 32.4357 62.5367 32.9562 61.8794 33.3189C61.225 33.6815 60.438 33.8629 59.5183 33.8629ZM58.0902 32.4431H59.4387C60.0695 32.4431 60.5957 32.3281 61.0172 32.0981C61.4387 31.8651 61.7556 31.5187 61.9678 31.0587C62.18 30.5957 62.2861 30.0178 62.2861 29.3248C62.2861 28.6319 62.18 28.0569 61.9678 27.5998C61.7556 27.1398 61.4416 26.7963 61.026 26.5693C60.6134 26.3393 60.1005 26.2243 59.4874 26.2243H58.0902V32.4431Z" fill="#BC2227"/>
<path d="M68.0864 33.8629V24.8045H73.9758V26.18H69.7268V28.6393H73.6707V30.0148H69.7268V32.4873H74.0112V33.8629H68.0864Z" fill="#BC2227"/>
<path d="M79.4268 33.8629H77.6759L80.8638 24.8045H82.8888L86.0811 33.8629H84.3302L81.9117 26.6622H81.8409L79.4268 33.8629ZM79.4843 30.3112H84.2594V31.6292H79.4843V30.3112Z" fill="#BC2227"/>
<path d="M89.8884 33.8629V24.8045H91.5288V32.4873H95.5169V33.8629H89.8884Z" fill="#BC2227"/>
<path d="M99.5553 33.8629V24.8045H105.445V26.18H101.196V28.6393H105.14V30.0148H101.196V32.4873H105.48V33.8629H99.5553Z" fill="#BC2227"/>
<path d="M109.733 33.8629V24.8045H113.128C113.824 24.8045 114.408 24.9254 114.879 25.1672C115.354 25.409 115.712 25.7481 115.954 26.1845C116.198 26.6179 116.321 27.1236 116.321 27.7016C116.321 28.2825 116.197 28.7867 115.949 29.2143C115.705 29.6389 115.344 29.9677 114.866 30.2006C114.389 30.4306 113.802 30.5456 113.106 30.5456H110.688V29.1833H112.885C113.292 29.1833 113.625 29.1273 113.885 29.0152C114.144 28.9002 114.336 28.7336 114.459 28.5154C114.586 28.2943 114.649 28.023 114.649 27.7016C114.649 27.3802 114.586 27.1059 114.459 26.8789C114.333 26.6489 114.14 26.4749 113.88 26.357C113.621 26.2361 113.286 26.1756 112.876 26.1756H111.373V33.8629H109.733ZM114.411 29.7583L116.652 33.8629H114.822L112.62 29.7583H114.411Z" fill="#BC2227"/>
<path d="M125.366 27.2947C125.325 26.9084 125.151 26.6076 124.845 26.3924C124.541 26.1771 124.146 26.0695 123.66 26.0695C123.318 26.0695 123.024 26.1211 122.78 26.2243C122.535 26.3275 122.348 26.4675 122.218 26.6445C122.089 26.8214 122.022 27.0234 122.019 27.2504C122.019 27.4391 122.062 27.6028 122.148 27.7414C122.236 27.88 122.355 27.9979 122.506 28.0952C122.656 28.1896 122.823 28.2692 123.005 28.3341C123.188 28.3989 123.372 28.4535 123.558 28.4977L124.407 28.71C124.749 28.7896 125.078 28.8973 125.393 29.0329C125.711 29.1686 125.996 29.3396 126.246 29.546C126.5 29.7524 126.7 30.0016 126.848 30.2935C126.995 30.5854 127.069 30.9275 127.069 31.3196C127.069 31.8504 126.933 32.3178 126.662 32.7217C126.391 33.1228 125.999 33.4368 125.486 33.6638C124.976 33.888 124.358 34 123.633 34C122.929 34 122.317 33.8909 121.798 33.6727C121.282 33.4545 120.879 33.136 120.587 32.7173C120.298 32.2986 120.142 31.7885 120.118 31.1869H121.732C121.756 31.5025 121.853 31.7649 122.024 31.9742C122.195 32.1836 122.417 32.3399 122.691 32.4431C122.968 32.5463 123.278 32.5979 123.62 32.5979C123.977 32.5979 124.289 32.5448 124.557 32.4387C124.828 32.3296 125.041 32.1792 125.194 31.9875C125.347 31.7929 125.425 31.5658 125.428 31.3064C125.425 31.0705 125.356 30.8759 125.22 30.7225C125.085 30.5662 124.895 30.4365 124.65 30.3333C124.408 30.2271 124.125 30.1328 123.801 30.0502L122.771 29.7848C122.025 29.5932 121.436 29.3027 121.002 28.9135C120.572 28.5213 120.357 28.0009 120.357 27.3522C120.357 26.8184 120.501 26.3511 120.79 25.95C121.082 25.549 121.478 25.2379 121.98 25.0168C122.481 24.7927 123.048 24.6806 123.682 24.6806C124.324 24.6806 124.887 24.7927 125.371 25.0168C125.857 25.2379 126.239 25.5461 126.516 25.9412C126.793 26.3334 126.936 26.7845 126.945 27.2947H125.366Z" fill="#BC2227"/>
<path d="M131.146 33.8629V24.8045H132.786V28.6393H136.982V24.8045H138.627V33.8629H136.982V30.0148H132.786V33.8629H131.146Z" fill="#BC2227"/>
<path d="M144.666 24.8045V33.8629H143.025V24.8045H144.666Z" fill="#BC2227"/>
<path d="M149.057 33.8629V24.8045H152.452C153.148 24.8045 153.732 24.9342 154.203 25.1937C154.678 25.4532 155.036 25.81 155.278 26.2641C155.522 26.7152 155.645 27.2283 155.645 27.8033C155.645 28.3842 155.522 28.9002 155.278 29.3514C155.033 29.8025 154.672 30.1578 154.195 30.4173C153.717 30.6739 153.129 30.8021 152.43 30.8021H150.18V29.4531H152.209C152.616 29.4531 152.949 29.3823 153.209 29.2408C153.468 29.0993 153.66 28.9046 153.783 28.657C153.91 28.4093 153.973 28.1247 153.973 27.8033C153.973 27.4819 153.91 27.1988 153.783 26.9541C153.66 26.7093 153.466 26.5191 153.204 26.3835C152.945 26.2449 152.61 26.1756 152.2 26.1756H150.697V33.8629H149.057Z" fill="#BC2227"/>
</svg>
